<svg xmlns="http://www.w3.org/2000/svg" xmlns:xlink="http://www.w3.org/1999/xlink" id="Calque_1" x="0px" y="0px" viewBox="0 0 160.71 123" style="enable-background:new 0 0 160.71 123;" xml:space="preserve">
<style type="text/css">
	.st0{opacity:0.1;}
	.st1{fill:#00405E;}
	.st2{fill:#0E142D;}
	.st3{fill:#C22D2D;}
</style>
<g class="st0">
	<path class="st1" d="M80.36,186.28c-69.2,0-125.5-56.3-125.5-125.5s56.3-125.5,125.5-125.5s125.5,56.3,125.5,125.5   S149.56,186.28,80.36,186.28z M80.36-63.72c-68.65,0-124.5,55.85-124.5,124.5s55.85,124.5,124.5,124.5s124.5-55.85,124.5-124.5   S149.01-63.72,80.36-63.72z"></path>
</g>
<g>
	<g>
		<path class="st2" d="M159.21,30.43H1.5c-0.83,0-1.5-0.67-1.5-1.5s0.67-1.5,1.5-1.5h157.71c0.83,0,1.5,0.67,1.5,1.5    S160.04,30.43,159.21,30.43z"></path>
	</g>
	<g>
		<path class="st2" d="M131.79,16.71H121.5c-0.83,0-1.5-0.67-1.5-1.5c0-0.83,0.67-1.5,1.5-1.5h10.29c0.83,0,1.5,0.67,1.5,1.5    C133.29,16.04,132.61,16.71,131.79,16.71z"></path>
	</g>
	<g>
		<path class="st2" d="M148.93,16.71h-10.29c-0.83,0-1.5-0.67-1.5-1.5c0-0.83,0.67-1.5,1.5-1.5h10.29c0.83,0,1.5,0.67,1.5,1.5    C150.43,16.04,149.76,16.71,148.93,16.71z"></path>
	</g>
	<g>
		<path class="st2" d="M114.64,16.71h-10.29c-0.83,0-1.5-0.67-1.5-1.5c0-0.83,0.67-1.5,1.5-1.5h10.29c0.83,0,1.5,0.67,1.5,1.5    C116.14,16.04,115.47,16.71,114.64,16.71z"></path>
	</g>
	<g>
		<path class="st2" d="M73.5,16.71H11.79c-0.83,0-1.5-0.67-1.5-1.5c0-0.83,0.67-1.5,1.5-1.5H73.5c0.83,0,1.5,0.67,1.5,1.5    C75,16.04,74.33,16.71,73.5,16.71z"></path>
	</g>
	<g>
		<path class="st3" d="M66.64,92.14c-0.38,0-0.77-0.15-1.06-0.44L51.87,77.99c-0.28-0.28-0.44-0.66-0.44-1.06s0.16-0.78,0.44-1.06    l13.71-13.71c0.59-0.59,1.54-0.59,2.12,0s0.59,1.54,0,2.12L55.05,76.93L67.7,89.58c0.59,0.59,0.59,1.54,0,2.12    C67.41,92,67.03,92.14,66.64,92.14z"></path>
	</g>
	<g>
		<path class="st3" d="M94.07,92.14c-0.38,0-0.77-0.15-1.06-0.44c-0.59-0.59-0.59-1.54,0-2.12l12.65-12.65L93.01,64.27    c-0.59-0.59-0.59-1.54,0-2.12s1.54-0.59,2.12,0l13.71,13.71c0.28,0.28,0.44,0.66,0.44,1.06s-0.16,0.78-0.44,1.06L95.13,91.7    C94.84,92,94.45,92.14,94.07,92.14z"></path>
	</g>
	<g>
		<path class="st3" d="M73.5,102.43c-0.14,0-0.28-0.02-0.41-0.06c-0.8-0.23-1.26-1.06-1.03-1.85l13.71-48    c0.23-0.8,1.06-1.26,1.85-1.03c0.8,0.23,1.26,1.06,1.03,1.85l-13.71,48C74.75,102,74.15,102.43,73.5,102.43z"></path>
	</g>
	<g>
		<path class="st2" d="M159.21,123H1.5c-0.83,0-1.5-0.67-1.5-1.5V1.5C0,0.67,0.67,0,1.5,0h157.71c0.83,0,1.5,0.67,1.5,1.5v120    C160.71,122.33,160.04,123,159.21,123z M3,120h154.71V3H3V120z"></path>
	</g>
</g>
</svg>